# File created by Blade
# Date/Time:  Wed Jan 21 16:02:01 2015
# Frame Rate: 120.000 fps
#------------------------------------------------------
:FULLY-SPECIFIED
:DEGREES
861
root 18.838264 32.658504 -17.609631 -171.270515 4.215368 -177.051143
Spine -20.079315 8.614106 3.221361
Head 12.773894 -3.252383 -8.518335
LeftShoulder -13.490874 -29.324509 -5.128423
LeftArm -41.896784 -9.013977 -49.795516
LeftForeArm 0.997700 0.000000 7.406283
LeftHand -1.536772 -0.000000 2.748486
LeftHandThumb1 -26.253704 0.000000 33.147579
RightShoulder -8.377020 18.514195 -47.718947
RightArm 48.539985 47.044873 -4.857183
RightForeArm -42.822063 -0.000000 8.733674
RightHand -0.184630 -0.000000 -17.468652
RightHandThumb1 -24.326973 -0.000000 -32.862282
LeftUpLeg 11.606141 2.778874 -17.733464
LeftLeg -1.538486 -0.000000 0.000000
LeftFoot -34.138050 19.104630 -15.450783
LeftToeBase 18.359972 -0.000000 -0.000000
RightUpLeg -19.106482 11.986692 21.783596
RightLeg -3.623595 -0.000000 0.000000
RightFoot -0.212454 -32.316320 -4.194860
RightToeBase 20.443507 -0.000000 -0.000000
862
root 18.829822 32.659147 -17.601697 -171.272343 4.223940 -177.036825
Spine -20.041401 8.589551 3.276679
Head 12.769396 -3.232038 -8.506905
LeftShoulder -13.509018 -29.323637 -5.102850
LeftArm -41.851239 -9.070565 -49.764246
LeftForeArm 1.064317 -0.000000 7.398780
LeftHand -1.504043 -0.000000 2.694564
LeftHandThumb1 -26.253704 0.000000 33.147579
RightShoulder -8.323220 18.434312 -47.647374
RightArm 48.352934 47.080860 -5.074038
RightForeArm -42.753564 -0.000000 8.733223
RightHand -0.172819 -0.000000 -17.458372
RightHandThumb1 -24.326973 -0.000000 -32.862282
LeftUpLeg 11.597967 2.784047 -17.734314
LeftLeg -1.547173 -0.000000 0.000000
LeftFoot -34.138191 19.107317 -15.455292
LeftToeBase 18.382097 -0.000000 -0.000000
RightUpLeg -19.116998 11.983853 21.785192
RightLeg -3.617028 -0.000000 0.000000
RightFoot -0.239312 -32.304127 -4.148768
RightToeBase 20.433483 -0.000000 -0.000000
863
root 18.822020 32.660278 -17.594159 -171.289208 4.236324 -177.027376
Spine -19.982823 8.566461 3.324234
Head 12.762218 -3.209659 -8.494624
LeftShoulder -13.528115 -29.378952 -5.081847
LeftArm -41.836063 -9.047195 -49.734175
LeftForeArm 1.047308 -0.000000 7.379051
LeftHand -1.471188 -0.000000 2.567112
LeftHandThumb1 -26.253704 0.000000 33.147579
RightShoulder -8.347393 18.533083 -47.654481
RightArm 48.363917 47.003293 -4.994951
RightForeArm -42.794766 -0.000000 8.773769
RightHand -0.116546 -0.000000 -17.439969
RightHandThumb1 -24.326973 -0.000000 -32.862282
LeftUpLeg 11.606035 2.791963 -17.737666
LeftLeg -1.557115 -0.000000 0.000000
LeftFoot -34.129035 19.102636 -15.453571
LeftToeBase 18.505202 -0.000000 -0.000000
RightUpLeg -19.114953 11.990065 21.782330
RightLeg -3.606743 -0.000000 0.000000
RightFoot -0.218414 -32.280273 -4.203690
RightToeBase 20.444734 -0.000000 -0.000000
864
root 18.813293 32.660824 -17.585950 -171.295085 4.243322 -177.014864
Spine -19.945786 8.542615 3.375634
Head 12.778493 -3.199980 -8.493962
LeftShoulder -13.541315 -29.406473 -5.051637
LeftArm -41.827856 -9.052712 -49.729973
LeftForeArm 1.028219 -0.000000 7.382455
LeftHand -1.426455 -0.000000 2.639774
LeftHandThumb1 -26.253704 0.000000 33.147579
RightShoulder -8.313046 18.459406 -47.613601
RightArm 48.256127 47.059850 -5.082149
RightForeArm -42.762040 -0.000000 8.792959
RightHand -0.141884 -0.000000 -17.442184
RightHandThumb1 -24.326973 -0.000000 -32.862282
LeftUpLeg 11.603269 2.773129 -17.742963
LeftLeg -1.563470 -0.000000 0.000000
LeftFoot -34.126298 19.100664 -15.450087
LeftToeBase 18.466401 -0.000000 -0.000000
RightUpLeg -19.126333 11.988960 21.779292
RightLeg -3.594825 -0.000000 0.000000
RightFoot -0.236946 -32.285467 -4.187338
RightToeBase 20.516389 -0.000000 -0.000000
865
root 18.804639 32.661508 -17.577637 -171.300494 4.250589 -177.009329
Spine -19.913959 8.531879 3.414975
Head 12.805470 -3.177113 -8.497937
LeftShoulder -13.535800 -29.432321 -5.040458
LeftArm -41.818187 -9.011670 -49.753898
LeftForeArm 0.975590 -0.000000 7.390243
LeftHand -1.396127 -0.000000 2.728705
LeftHandThumb1 -26.253704 0.000000 33.147579
RightShoulder -8.305621 18.420266 -47.587099
RightArm 48.158790 47.037372 -5.187433
RightForeArm -42.752908 -0.000000 8.791706
RightHand -0.138178 0.000000 -17.455369
RightHandThumb1 -24.326973 -0.000000 -32.862282
LeftUpLeg 11.599633 2.767836 -17.753551
LeftLeg -1.577369 -0.000000 0.000000
LeftFoot -34.138484 19.108330 -15.478580
LeftToeBase 18.553714 -0.000000 -0.000000
RightUpLeg -19.141400 12.000198 21.765730
RightLeg -3.580608 -0.000000 0.000000
RightFoot -0.233219 -32.298402 -4.180089
RightToeBase 20.364188 -0.000000 -0.000000
866
root 18.795920 32.662281 -17.569707 -171.304892 4.255221 -177.002525
Spine -19.889006 8.513420 3.458100
Head 12.831701 -3.192864 -8.517202
LeftShoulder -13.543169 -29.430415 -5.023163
LeftArm -41.769497 -8.969177 -49.791640
LeftForeArm 0.979261 -0.000000 7.339837
LeftHand -1.341193 -0.000000 2.702870
LeftHandThumb1 -26.253704 0.000000 33.147579
RightShoulder -8.345139 18.342161 -47.584066
RightArm 48.378661 47.186960 -4.937196
RightForeArm -42.900598 -0.000000 8.671292
RightHand -0.014466 -0.000000 -17.438921
RightHandThumb1 -24.326973 -0.000000 -32.862282
LeftUpLeg 11.584113 2.764336 -17.761708
LeftLeg -1.567599 -0.000000 0.000000
LeftFoot -34.153444 19.106891 -15.512925
LeftToeBase 18.561296 -0.000000 -0.000000
RightUpLeg -19.156441 12.008403 21.753919
RightLeg -3.567911 -0.000000 0.000000
RightFoot -0.253905 -32.318192 -4.147371
RightToeBase 20.333696 -0.000000 -0.000000
867
root 18.787308 32.663034 -17.561398 -171.310611 4.262206 -177.002086
Spine -19.862855 8.499684 3.492230
Head 12.861964 -3.193765 -8.545653
LeftShoulder -13.531354 -29.448262 -5.023717
LeftArm -41.758665 -8.906477 -49.805212
LeftForeArm 0.947270 -0.000000 7.329201
LeftHand -1.325191 -0.000000 2.684013
LeftHandThumb1 -26.253704 0.000000 33.147579
RightShoulder -8.376385 18.291987 -47.590802
RightArm 48.411219 47.187557 -4.888068
RightForeArm -42.904217 -0.000000 8.644010
RightHand -0.043048 -0.000000 -17.489513
RightHandThumb1 -24.326973 -0.000000 -32.862282
LeftUpLeg 11.571287 2.757668 -17.777685
LeftLeg -1.560760 -0.000000 0.000000
LeftFoot -34.197412 19.090380 -15.584578
LeftToeBase 18.690376 -0.000000 -0.000000
RightUpLeg -19.168748 12.033255 21.731768
RightLeg -3.562721 -0.000000 0.000000
RightFoot -0.265695 -32.359898 -4.109718
RightToeBase 20.204132 -0.000000 -0.000000
868
root 18.778913 32.662703 -17.552563 -171.311778 4.262008 -176.998587
Spine -19.841149 8.485874 3.532131
Head 12.900610 -3.177496 -8.590635
LeftShoulder -13.514623 -29.429333 -5.027904
LeftArm -41.740642 -8.906643 -49.796180
LeftForeArm 0.979075 0.000000 7.357504
LeftHand -1.446226 -0.000000 2.692172
LeftHandThumb1 -26.253704 0.000000 33.147579
RightShoulder -8.394870 18.280166 -47.607700
RightArm 48.403382 47.159706 -4.866592
RightForeArm -42.961022 0.000000 8.650107
RightHand -0.062258 -0.000000 -17.425575
RightHandThumb1 -24.326973 -0.000000 -32.862282
LeftUpLeg 11.544207 2.752493 -17.790343
LeftLeg -1.535574 -0.000000 0.000000
LeftFoot -34.239568 19.111060 -15.595270
LeftToeBase 18.757052 -0.000000 -0.000000
RightUpLeg -19.192502 12.047880 21.716422
RightLeg -3.545523 -0.000000 0.000000
RightFoot -0.259371 -32.390689 -4.139898
RightToeBase 20.079305 -0.000000 -0.000000
869
root 18.770281 32.662476 -17.546369 -171.307836 4.290955 -176.980066
Spine -19.830185 8.501716 3.578899
Head 12.918727 -3.186505 -8.617515
LeftShoulder -13.517167 -29.411046 -5.024695
LeftArm -41.736614 -8.919121 -49.778288
LeftForeArm 0.962328 -0.000000 7.393558
LeftHand -1.486455 -0.000000 2.715851
LeftHandThumb1 -26.253704 0.000000 33.147579
RightShoulder -8.363682 18.315209 -47.583832
RightArm 48.195789 47.006952 -5.107116
RightForeArm -42.869831 -0.000000 8.699146
RightHand -0.096639 -0.000000 -17.306377
RightHandThumb1 -24.326973 -0.000000 -32.862282
LeftUpLeg 11.518914 2.805121 -17.785072
LeftLeg -1.522018 -0.000000 0.000000
LeftFoot -34.228207 19.089617 -15.590605
LeftToeBase 18.718261 -0.000000 -0.000000
RightUpLeg -19.199269 12.072268 21.716203
RightLeg -3.541905 -0.000000 0.000000
RightFoot -0.261325 -32.383921 -4.128341
RightToeBase 20.037298 -0.000000 -0.000000
870
root 18.760869 32.662519 -17.538909 -171.311059 4.307738 -176.981818
Spine -19.809257 8.490750 3.609783
Head 12.934567 -3.166725 -8.641794
LeftShoulder -13.519528 -29.405967 -5.031145
LeftArm -41.737031 -8.905918 -49.767114
LeftForeArm 0.903639 -0.000000 7.414196
LeftHand -1.509876 -0.000000 2.836665
LeftHandThumb1 -26.253704 0.000000 33.147579
RightShoulder -8.360492 18.295138 -47.567081
RightArm 48.176343 47.003065 -5.125734
RightForeArm -42.817449 -0.000000 8.716542
RightHand -0.113292 -0.000000 -17.267850
RightHandThumb1 -24.326973 -0.000000 -32.862282
LeftUpLeg 11.493084 2.860031 -17.794523
LeftLeg -1.497985 -0.000000 0.000000
LeftFoot -34.311663 19.019279 -15.671523
LeftToeBase 18.992852 -0.000000 -0.000000
RightUpLeg -19.201961 12.074781 21.704186
RightLeg -3.550106 -0.000000 0.000000
RightFoot -0.246621 -32.399721 -4.143662
RightToeBase 19.842314 -0.000000 -0.000000
871
root 18.752968 32.662004 -17.530718 -171.317555 4.322209 -176.972375
Spine -19.781615 8.479164 3.652611
Head 12.944690 -3.172443 -8.680012
LeftShoulder -13.522524 -29.403099 -5.029620
LeftArm -41.743928 -8.907259 -49.747486
LeftForeArm 0.903921 -0.000000 7.429803
LeftHand -1.479892 -0.000000 2.863240
LeftHandThumb1 -26.253704 0.000000 33.147579
RightShoulder -8.358431 18.251685 -47.547441
RightArm 48.167045 47.032256 -5.148822
RightForeArm -42.831958 -0.000000 8.693934
RightHand -0.062857 -0.000000 -17.214422
RightHandThumb1 -24.326973 -0.000000 -32.862282
LeftUpLeg 11.463952 2.895298 -17.796189
LeftLeg -1.461436 -0.000000 0.000000
LeftFoot -34.361212 19.002051 -15.687404
LeftToeBase 19.082190 -0.000000 -0.000000
RightUpLeg -19.200108 12.062165 21.708325
RightLeg -3.559844 -0.000000 0.000000
RightFoot -0.240853 -32.370002 -4.143924
RightToeBase 19.894288 -0.000000 -0.000000
872
root 18.745373 32.661870 -17.520194 -171.322147 4.339295 -176.972653
Spine -19.750387 8.472896 3.674701
Head 12.943601 -3.172224 -8.704043
LeftShoulder -13.519429 -29.404538 -5.025452
LeftArm -41.739565 -8.890339 -49.736212
LeftForeArm 0.947647 -0.000000 7.431857
LeftHand -1.497474 -0.000000 2.739476
LeftHandThumb1 -26.253704 0.000000 33.147579
RightShoulder -8.365819 18.224016 -47.520994
RightArm 48.190886 47.068823 -5.130567
RightForeArm -42.864300 -0.000000 8.684485
RightHand -0.049291 -0.000000 -17.207194
RightHandThumb1 -24.326973 -0.000000 -32.862282
LeftUpLeg 11.429488 2.917585 -17.809152
LeftLeg -1.428974 -0.000000 0.000000
LeftFoot -34.410807 19.002042 -15.719456
LeftToeBase 19.201177 -0.000000 -0.000000
RightUpLeg -19.213235 12.042580 21.707224
RightLeg -3.550266 -0.000000 0.000000
RightFoot -0.250357 -32.371658 -4.128216
RightToeBase 19.790798 -0.000000 -0.000000
